<svg xmlns="http://www.w3.org/2000/svg" width="512" height="512" viewBox="0 0 512 512">
  <defs>
    <linearGradient id="bg" x1="0" y1="0" x2="1" y2="1">
      <stop offset="0%" stop-color="#0F172A"/>
      <stop offset="100%" stop-color="#111827"/>
    </linearGradient>
    <linearGradient id="accent" x1="0" y1="0" x2="1" y2="1">
      <stop offset="0%" stop-color="#8B5CF6"/>
      <stop offset="100%" stop-color="#06B6D4"/>
    </linearGradient>
  </defs>

  <rect x="24" y="24" width="464" height="464" rx="100" fill="url(#bg)"/>

  <rect x="104" y="124" width="304" height="264" rx="30" fill="#1E293B" stroke="#334155" stroke-width="3"/>

  <circle cx="184" cy="112" r="18" fill="url(#accent)"/>
  <circle cx="328" cy="112" r="18" fill="url(#accent)"/>
  <rect x="184" y="106" width="144" height="12" rx="6" fill="#475569"/>

  <g stroke="url(#accent)" stroke-width="14" stroke-linecap="round" stroke-linejoin="round" fill="none">
    <path d="M145 205 L175 235 L225 185"/>
    <path d="M145 275 L175 305 L225 255"/>
    <path d="M145 345 L175 375 L225 325"/>
  </g>

  <g stroke="#64748B" stroke-width="12" stroke-linecap="round">
    <line x1="270" y1="210" x2="360" y2="210"/>
    <line x1="270" y1="280" x2="360" y2="280"/>
    <line x1="270" y1="350" x2="360" y2="350"/>
  </g>

  <circle cx="400" cy="112" r="10" fill="#22C55E"/>
</svg>